<svg id="Layer_1" data-name="Layer 1" xmlns="http://www.w3.org/2000/svg" viewBox="0 0 102 102"><defs><style>.cls-1{fill:#ffc500}.cls-2{fill:#fff}.cls-3{fill:#2a2a2a}</style></defs><title>Artboard 1</title><path class="cls-1" d="M0 0h102v102H0z"/><path class="cls-1" d="M1 1h100v100H1z"/><path class="cls-2" d="M1 67h100v34H1z"/><path class="cls-3" d="M91.12 33.44l-4.2-4.21a1.79 1.79 0 1 0-2.53 2.52l1.83 1.83a42.74 42.74 0 0 1-4.83 6.09l-.1-.53a10.06 10.06 0 0 0-19.79 3.67l1.5 8.1a42.31 42.31 0 0 1-12 1.75 41.89 41.89 0 0 1-35.22-19.07l1.83-1.83a1.79 1.79 0 1 0-2.53-2.53l-4.21 4.21a1.77 1.77 0 0 0 2.3 2.68 45.63 45.63 0 0 0 75.66 0 1.77 1.77 0 0 0 2.3-2.68zM65 42.17a6.49 6.49 0 1 1 12.77-2.37l.52 2.81a41.8 41.8 0 0 1-4.2 3.16l-1-5.26a1.79 1.79 0 1 0-3.51.65l1.21 6.54a41.64 41.64 0 0 1-4.41 2zM10.94 93.56H7.35l2.88-14.93h3.26l-.1.54a4.4 4.4 0 0 1-.19.69 4.21 4.21 0 0 1 3.24-1.48c2.59 0 4.16 1.84 4.16 4.68a6.29 6.29 0 0 1-5.89 6.58 3.75 3.75 0 0 1-2.82-1.13s0 .38-.15.92zm3.34-6.91c1.25 0 2.69-1.21 2.69-3.32 0-1.17-.63-1.9-1.67-1.9a3.14 3.14 0 0 0-2.69 3.32c0 1.04.5 1.89 1.67 1.89zM23.51 78.62h3.61L25 89.38h-3.56zm.86-4.18h3.53l-.54 2.82h-3.54zM27.83 87.58l4.78-4.95a10.06 10.06 0 0 1 1.11-1 6.57 6.57 0 0 1-.92 0h-3.67l.61-3h9.59L39 80.44l-4.8 4.95a7.84 7.84 0 0 1-1.17 1 5.42 5.42 0 0 1 1-.06h3.91l-.61 3H27.5zM39.52 87.58l4.78-4.95a10.06 10.06 0 0 1 1.11-1 6.57 6.57 0 0 1-.92 0h-3.67l.61-3H51l-.33 1.82-4.77 4.94a7.84 7.84 0 0 1-1.17 1 5.42 5.42 0 0 1 1-.06h3.91l-.61 3h-9.84zM58.17 82.67h.15v-.4c0-.71-.5-1-1.36-1a8 8 0 0 0-3.11 1l-.77-2.72a11.06 11.06 0 0 1 4.6-1.19c1.82 0 4.26.71 4.26 3.43a6.62 6.62 0 0 1-.1 1l-1.25 6.54h-3.3l.12-.65a3.85 3.85 0 0 1 .19-.67 4.24 4.24 0 0 1-3.17 1.57 2.88 2.88 0 0 1-3.15-2.78c-.02-3.21 4.14-4.13 6.89-4.13zm-2.4 4.2A2.54 2.54 0 0 0 57.9 85v-.23h-.33c-.77 0-2.72.17-2.72 1.44.04.37.31.66.92.66zM64.54 86H68l-.65 3.43h-3.46zM76.57 78.37a3.66 3.66 0 0 1 2.72 1s0-.27.06-.48l.86-4.41h3.61L81 89.38h-3.43l.15-.71c.06-.33.12-.61.12-.61a3.87 3.87 0 0 1-3.09 1.57c-2.63 0-4.18-1.82-4.18-4.62-.04-4.01 2.8-6.64 6-6.64zm-.69 8.27a3.16 3.16 0 0 0 2.67-3.32c0-1-.5-1.9-1.67-1.9a3.05 3.05 0 0 0-2.69 3.32 1.68 1.68 0 0 0 1.69 1.9zM90.05 78.37c3 0 4.6 1.73 4.6 4.22a7.53 7.53 0 0 1-.4 2.11h-6.79a1.85 1.85 0 0 0 2.11 1.92 6.83 6.83 0 0 0 3.2-1.09l.92 2.69a8.1 8.1 0 0 1-4.34 1.4c-3.68 0-5.49-2.17-5.49-4.7a6.24 6.24 0 0 1 6.19-6.55zm1.07 4.26v-.38A1.09 1.09 0 0 0 90 81.09a2.18 2.18 0 0 0-2 1.55z"/></svg>